<svg width="246" height="276" viewBox="0 0 246 276" fill="none" xmlns="http://www.w3.org/2000/svg">
<line x1="64.2605" y1="45.3127" x2="104.313" y2="68.7395" stroke="#525FE1" stroke-width="15" stroke-linecap="round"/>
<line x1="34.8302" y1="234.029" x2="20.0287" y2="264.376" stroke="#525FE1" stroke-width="15" stroke-linecap="round"/>
<line x1="74.2075" y1="256.434" x2="64.3106" y2="236.142" stroke="#525FE1" stroke-width="15" stroke-linecap="round"/>
<line x1="122.823" y1="252.62" x2="114.695" y2="235.956" stroke="#525FE1" stroke-width="15" stroke-linecap="round"/>
<line x1="169.464" y1="244.809" x2="165.054" y2="235.767" stroke="#525FE1" stroke-width="15" stroke-linecap="round"/>
<line x1="110.628" y1="120.482" x2="121.482" y2="106.372" stroke="#525FE1" stroke-width="15" stroke-linecap="round"/>
<line x1="44.5194" y1="20.6303" x2="30.6303" y2="10.4806" stroke="#525FE1" stroke-width="15" stroke-linecap="round"/>
<line x1="215.519" y1="21.6303" x2="201.63" y2="11.4806" stroke="#525FE1" stroke-width="15" stroke-linecap="round"/>
<line x1="105.367" y1="10.4806" x2="91.4806" y2="20.6293" stroke="#525FE1" stroke-width="15" stroke-linecap="round"/>
<line x1="153.367" y1="11.4806" x2="139.481" y2="21.6293" stroke="#525FE1" stroke-width="15" stroke-linecap="round"/>
<line x1="8" y1="110.507" x2="8" y2="87.4934" stroke="#525FE1" stroke-width="15" stroke-linecap="round"/>
<line x1="28.5" y1="209.5" x2="28.5" y2="122.5" stroke="#525FE1" stroke-width="15" stroke-linecap="round"/>
<line x1="209.5" y1="165.5" x2="209.5" y2="121.5" stroke="#525FE1" stroke-width="15" stroke-linecap="round"/>
<line x1="237.5" y1="87.5" x2="10.5" y2="87.5" stroke="#525FE1" stroke-width="15" stroke-linecap="round"/>
<line x1="208.5" y1="121.5" x2="28.5" y2="121.5" stroke="#525FE1" stroke-width="15" stroke-linecap="round"/>
<line x1="208.5" y1="144.5" x2="28.5" y2="144.5" stroke="#525FE1" stroke-width="15" stroke-linecap="round"/>
<line x1="208.5" y1="166.5" x2="28.5" y2="166.5" stroke="#525FE1" stroke-width="15" stroke-linecap="round"/>
<line x1="224.5" y1="188.5" x2="28.5" y2="188.5" stroke="#525FE1" stroke-width="15" stroke-linecap="round"/>
<line x1="211.5" y1="210.5" x2="29.5" y2="210.5" stroke="#525FE1" stroke-width="15" stroke-linecap="round"/>
<path d="M21 70.5C70.5 53.5 70.5 26.5 70.5 15" stroke="#525FE1" stroke-width="15" stroke-linecap="round"/>
<path d="M212 212C212 279.42 158.493 267.121 141 267.121" stroke="#525FE1" stroke-width="15" stroke-linecap="round"/>
<path d="M94 41H91" stroke="#525FE1" stroke-width="10" stroke-linecap="round"/>
<path d="M41 41H38" stroke="#525FE1" stroke-width="10" stroke-linecap="round"/>
<line x1="174.261" y1="45.3127" x2="214.313" y2="68.7395" stroke="#525FE1" stroke-width="15" stroke-linecap="round"/>
<path d="M131 70.5C180.5 53.5 180.5 26.5 180.5 15" stroke="#525FE1" stroke-width="15" stroke-linecap="round"/>
<path d="M204 41H201" stroke="#525FE1" stroke-width="10" stroke-linecap="round"/>
<path d="M151 41H148" stroke="#525FE1" stroke-width="10" stroke-linecap="round"/>
<line x1="238" y1="110.507" x2="238" y2="87.4934" stroke="#525FE1" stroke-width="15" stroke-linecap="round"/>
</svg>
